<?xml version="1.0" encoding="UTF-8"?>
<svg id="Capa_2" data-name="Capa 2" xmlns="http://www.w3.org/2000/svg" viewBox="0 0 343.43 330.91">
  <defs>
    <style>
      .cls-1 {
        fill: #fff;
      }

      .cls-2 {
        fill: #00739e;
      }
    </style>
  </defs>
  <g id="Arte">
    <g>
      <path class="cls-1" d="m288.28,75.54v138.99c0,3.45,2.79,6.24,6.24,6.24h42.67c3.45,0,6.24-2.79,6.24-6.24V6.24c0-3.45-2.79-6.24-6.24-6.24h-79.29c-2.67,0-5.04,1.69-5.9,4.21l-80.01,232.94L89.88,4.17c-.88-2.5-3.24-4.17-5.89-4.17H6.24C2.79,0,0,2.79,0,6.24v318.43c0,3.45,2.79,6.24,6.24,6.24h42.67c3.45,0,6.24-2.79,6.24-6.24V75.54h.93l91.76,255.37h47.74l91.76-255.37h.93Z"/>
      <rect class="cls-2" x="288.28" y="275.77" width="55.15" height="55.14" rx="6.24" ry="6.24"/>
    </g>
  </g>
</svg>