<?xml version="1.0" encoding="utf-8"?>
<!-- Generator: Adobe Illustrator 19.2.1, SVG Export Plug-In . SVG Version: 6.00 Build 0)  -->
<svg version="1.1" id="Layer_1" xmlns="http://www.w3.org/2000/svg" xmlns:xlink="http://www.w3.org/1999/xlink" x="0px" y="0px"
	 width="193.3px" height="63px" viewBox="0 0 193.3 63" style="enable-background:new 0 0 193.3 63;" xml:space="preserve">
<style type="text/css">
	.st0{fill:#FFFFFF;}
	.st1{fill:#FE1509;}
</style>
<title>launch-logo</title>
<path class="st0" d="M32.3,43c1.2-1.7,2.5-2.2,4.6-1.7c3.7,0.8,3.5,5.3,6,6s5.4-1.3,7.6,2.8c0.7-2.2-2.6-6.1-4.3-7.2
	c-1.8-0.9-2.4-3.6-2.2-4.8c0.2-1.3-1.1-2.9-1.9-3.4c-0.8-0.4-0.4-1.7-0.6-2.1c-0.2-0.4-1.3,0.5-2.4,1.9C38,35.9,31.8,37.3,32.3,43z
	 M37.4,9.9c0.4-0.1,2.3,0,2.5,0.1c0-1.5,0-2.2,0.8-2.9s1.9-1.6,1.5-3.1C42.1,3.4,43,3.6,43,4.4c0,0.6,0.2,4.1-0.2,5.2
	s-1.2,1.8-1.5,2c0.4,0.3,1.5,0.8,1.7,1.1c0.4-1.5,1.8-5.3,0.8-7.3C43,3.5,43.6,3,43.5,2.6s-0.7-0.5-1.2,0.2s-3.1,3.3-3.6,3.7
	C38.5,7,37.3,9,37.4,9.9z"/>
<path class="st0" d="M46.5,22.9C45.8,21,46,19.4,46,18.6c-0.1-0.7,0.5-2.6,0.3-2.9c-0.2-0.3-1.7-2.3-2.1-2.3
	c-0.9-0.1-2.3-0.7-3.5-1.1c0.4,0.4,1.1,0.7,1.4,2.3c0.3,1.6,0.1,2.9,0.5,3.8c0,0-0.7-0.2-1.8,0.2c-1.1,0.3-2.3,1.7-2.1,2.1
	c1.1,0.5,1.1,2.7,2.8,2.3c0.1,1.7-1.6,4.6-2.4,6.6c-0.8,2-1.6,1.3-1.6,0.6c-2.9,0.6-2.3-2.6-2.1-2.9s1.1-0.5,0.3-0.6
	c-0.7-0.1-0.7-2.5-0.3-3.8c-0.8,0.3-0.7,1.4-0.8,1.3c-0.5-2,1.2-3.4,2.9-5.7c1.8-2.3,0.8-4.8,0-6c-0.7,0.7-3.5-0.1-4.8,0.3
	c-3.3,0.9-3.5,3.7-3.3,5.2s1.2,2.6,2.1,3.4c-0.7,3.2-0.3,5.1-0.4,6c-0.1,1.1-1.3,0.5-1.4-0.1c0-0.6-0.1-0.9-0.1-1.6
	c-2.5-0.1-2.3-5.9-1.2-8c-1.4-0.3-1.2-1.1-0.9-2.1c-3,3.4-3.4-0.5-2.5-1.6c0.7-1.2,0.7-5.3,0.3-5.6c-0.4-0.3-0.4-4,0.4-3.9
	c0.9,0,0.7,7.7,0.4,9.6c0-0.3,0.9-0.7,1.5-1.5c-0.9-0.3,0.1-5,0.2-5.1c0.6,1.1,3.7,3.3,2.8,3.8c-1.1,0.6-1.8,1.3-1.5,2.1
	c0.6-1.7,1.8-0.9,2.5-2.1c0.7-1.2-2.7-3.3-4-5.2c-0.8-1.2-1.6-3.3-2-2.8c-3.1,2.9-2.7,9.1-2.4,10.5c0.3,1.5,1.4,3.7,1.7,4.4
	c-4,4.5-4.6,16.4-4.6,19.1c0,5.1-1.7,7.9-1.2,10.4s2.7,3.4,3.5,3.6c0.4-3.3-2.4-5.8-0.9-9.7c1.4-3.4,4.2-4.4,3.1-10.9
	c-1.7-9.1,0.9-10.5,1.1-10.3c0,8.1,3.6,9.1,5.3,9.3c0.2,3.8,3.1,3.7,5.4,3.7c2.3,0,3.5-2.5,4.3-4.4c0.7-1.9,1.1-1.8,1.5-2
	s2.7-0.3,2.7,0s-0.7,0.9-0.7,1.4c-0.1,0.4,0.1,1.8,0,2.1c-0.1,0.3-0.7,0.7-0.5,1.8c0.2,1.1,1.8,1.3,3.4-0.3
	C48.4,29.9,47,24.8,46.5,22.9z M34.9,16.1c0.3-0.3,0.8,0.1,0.6,0.4C35.3,17,34.3,16.6,34.9,16.1z M33.3,16.2c0-0.2,0.8-0.1,0.8,0.1
	c0.2,0.8,1.2,0.7,1.6,0.5c0,0,0.3,0.1,0.1,0.3C35,18.1,33.1,17.5,33.3,16.2z M31.9,16.9c-0.4-0.2-0.8-0.3-0.7-0.3
	c0.5-0.2,1.3-0.6,1.8-0.7c0,0.4,0,1.6,0.9,1.9c1.5,0.4,2-0.4,2.2-0.2c0.2,0.2,0.1,1.6-0.1,1.6c-0.1,0-0.4-0.5-0.6-0.6
	c-0.2-0.2-1.1,0.2-1.8,0C32.7,18.1,32.3,17.1,31.9,16.9z M34.1,20.6c0.3-0.3,0.8-0.1,0.3,0.8s-0.6,2.3-0.5,3.1
	C33.3,24.6,33,21.6,34.1,20.6z M44.7,18.6c-0.3,0.1-0.5-0.4-0.3-0.4c0.1,0,0.9-0.2,0.8-1.2C45.3,16.9,45.9,18.3,44.7,18.6z
	 M45.2,23.3c-0.3,0.1-0.1-2.3,0.1-2.6C45.4,20.4,45.7,23,45.2,23.3z M44.2,16.5c0.4,0,0.5,0.5,0,0.6C43.8,17.3,43.8,16.5,44.2,16.5z
	 M43.8,17.3c0.3,0.1,0.6,0.2,0.9-0.1c0.3-0.3,0.2-0.7,0.3-0.5c0.4,1.3-0.9,1.5-1.2,1.4C43.7,18.1,43.7,17.3,43.8,17.3z M44.7,20.9
	c0.2,1.1-1.1,1.3-1.1,0.9C43.5,21.6,44.6,20.4,44.7,20.9z M41.3,20.7c0.5,0,1.4,1.2,0.8,1.3C41.1,22.2,41,20.7,41.3,20.7z M43,25.5
	c-0.6,0.1-1.1,0.5-1.5,0.5c-0.5-0.1,0.7-0.4,1.3-1.3c0.5-0.8,0.2-0.9,0.4-1.1c0.2,0,0.1,0.7,0.4,1.1c0.3,0.3,1.1,0.9,1.3,1.3
	S44,25.3,43,25.5z M46.8,30.3c-0.7,1.9-2,1.3-2.2,1.1c-0.2-0.2-0.2-1.8,0.7-2.4s0.4-4.5,0.6-4.5C46.4,24.3,47.5,28.4,46.8,30.3z"/>
<g>
	<path class="st0" d="M71.7,19.3c1.8,0.4,3.1,0.9,3.9,1.8c1.2,1.2,1.8,2.5,1.8,4.2c0,1.3-0.4,2.4-1.2,3.6c-0.8,1.2-1.9,2-3.3,2.5
		s-3.5,0.8-6.3,0.8h-8.2V6.9h7.3c2,0,3.7,0.1,4.8,0.4c1.9,0.4,3.3,1.3,4.3,2.4c1.1,1.2,1.5,2.4,1.5,3.9c0,1.3-0.4,2.4-1.2,3.4
		C74.4,18.1,73.2,18.8,71.7,19.3z M61.9,18.3c0.4,0.1,0.9,0.1,1.6,0.2c0.6,0,1.3,0.1,1.9,0.1c1.8,0,3.2-0.2,4.1-0.5
		c0.9-0.4,1.6-0.9,2.1-1.8c0.5-0.8,0.7-1.7,0.7-2.6c0-1.5-0.6-2.7-1.8-3.8s-2.9-1.6-5.3-1.6c-1.3,0-2.3,0.1-3.4,0.4
		C61.9,8.7,61.9,18.3,61.9,18.3z M61.9,30.3c1.5,0.3,2.8,0.5,4.2,0.5c2.2,0,3.9-0.5,5.2-1.5c1.2-1.1,1.8-2.2,1.8-3.8
		c0-0.9-0.3-1.9-0.8-2.8s-1.4-1.6-2.6-2.1s-2.6-0.7-4.4-0.7h-2c-0.5,0-0.9,0.1-1.4,0.1L61.9,30.3L61.9,30.3z M93.4,7.1
		c3.4,0,6.3,1.2,8.8,3.6s3.7,5.4,3.7,8.8c0,3.7-1.3,6.7-3.8,9.1c-2.5,2.3-5.6,3.6-9.2,3.6s-6.6-1.2-9.1-3.6
		c-2.4-2.3-3.7-5.4-3.7-9.2s1.4-7,4.2-9.4C87,8.2,90,7.1,93.4,7.1z M93,8.4c-2.3,0-4.2,0.8-5.6,2.4c-1.8,2-2.6,5-2.6,8.7
		c0,3.9,0.9,7,2.7,9.1c1.4,1.6,3.3,2.4,5.6,2.4c2.4,0,4.5-0.8,6.1-2.6s2.4-4.5,2.4-8.3c0-4.1-0.8-7.2-2.6-9.3
		C97.4,9.2,95.5,8.4,93,8.4z M121.3,18.2l9.4,14h-4.3L118.9,21l-8.6,11.1h-2l9.8-12.3L109.5,7h4.2l6.6,9.8L128,7h1.9L121.3,18.2z
		 M138.1,8.3v10h9.6v1.4h-9.6v11.1h12.3v1.5h-15.8V6.9h15.8v1.4C150.4,8.3,138.1,8.3,138.1,8.3z M173.6,32.1h-4l-8.5-11.8h-2.6v11.8
		h-3.6V6.9h5.6c2.7,0,4.6,0.2,5.9,0.6c1.3,0.4,2.3,1.2,3.3,2.2c0.8,1.1,1.4,2.3,1.4,3.8c0,1.6-0.5,2.8-1.5,4c-1.1,1.2-2.5,2-4.7,2.4
		L173.6,32.1z M158.4,19.1h1.1c2.4,0,4.2-0.5,5.5-1.6s1.8-2.3,1.8-4c0-1.6-0.5-2.8-1.5-3.9c-0.9-0.9-2.3-1.5-3.9-1.5
		c-0.7,0-1.7,0.1-2.9,0.3C158.4,8.5,158.4,19.1,158.4,19.1z"/>
</g>
<g>
	<path class="st1" d="M82.5,43l3.3,0l0,0c-0.1,0.2,0,0.4,0.2,0.5c0.2,0.1,0.6,0.2,1.2,0.2h2.2c0.4,0,0.8,0,1-0.1
		c0.2-0.1,0.4-0.2,0.5-0.5c0.1-0.2,0-0.3-0.1-0.4c-0.2-0.1-0.5-0.2-0.9-0.2l-3-0.1c-1.5,0-2.5-0.2-3-0.5c-0.4-0.3-0.5-0.9-0.2-1.8
		c0.4-0.9,0.9-1.5,1.7-1.9s1.9-0.6,3.4-0.6h3.5c1.1,0,1.9,0.2,2.2,0.6c0.4,0.4,0.4,0.9,0.1,1.7h-3.1c0-0.1-0.1-0.3-0.4-0.3
		c-0.2-0.1-0.6-0.1-1-0.1h-2.1c-0.4,0-0.7,0-0.9,0.1c-0.2,0.1-0.3,0.2-0.4,0.4c-0.1,0.2,0,0.3,0.1,0.4c0.1,0.1,0.5,0.1,1.1,0.2h3.7
		c1.1,0,1.8,0.2,2.2,0.6c0.3,0.4,0.4,1,0,1.8c-0.4,0.9-0.9,1.6-1.7,2c-0.7,0.4-1.8,0.6-3.2,0.6H86c-1.8,0-2.9-0.2-3.3-0.5
		S82.2,43.9,82.5,43z"/>
	<path class="st1" d="M103.2,42.8h2.9l0,0.1c-0.4,0.9-0.9,1.5-1.7,1.9s-1.9,0.6-3.3,0.6h-2.8c-1.3,0-2.2-0.2-2.6-0.7
		s-0.5-1.2-0.2-2.1l0.8-2.1c0.4-1,1-1.7,1.9-2.2c0.9-0.5,2-0.8,3.2-0.8h2.9c1.3,0,2.2,0.3,2.6,0.8c0.5,0.5,0.5,1.2,0.1,2.2l-0.7,1.6
		h-7.7c0,0,0,0.1-0.1,0.1c0,0,0,0.1,0,0.1c-0.2,0.4-0.2,0.8,0,0.9c0.2,0.2,0.6,0.3,1.3,0.3h1.3c0.7,0,1.1-0.1,1.4-0.2
		C102.8,43.4,103,43.2,103.2,42.8z M99.4,40.6h4.7l0,0c0.1-0.4,0.1-0.6-0.1-0.8c-0.2-0.1-0.6-0.2-1.2-0.2h-1.3
		c-0.6,0-1.1,0.1-1.4,0.2C99.8,39.9,99.5,40.2,99.4,40.6L99.4,40.6z"/>
	<path class="st1" d="M110.7,45.5c-1.4,0-2.4-0.2-2.9-0.7c-0.5-0.4-0.5-1.2-0.1-2.1l0.8-2.1c0.4-1.1,1.1-1.9,1.8-2.3
		c0.8-0.4,1.9-0.7,3.4-0.7h2.9c1.4,0,2.4,0.2,2.8,0.6c0.5,0.4,0.5,1.1,0.2,2c0,0.1-0.1,0.2-0.1,0.3c-0.1,0.1-0.1,0.2-0.2,0.3h-2.9
		l0,0c0.2-0.4,0.1-0.7,0-0.9c-0.2-0.2-0.6-0.3-1.2-0.3h-1.5c-0.7,0-1.2,0.1-1.6,0.3c-0.3,0.2-0.6,0.6-0.8,1.1l-0.4,1
		c-0.2,0.5-0.2,0.8,0,1c0.2,0.2,0.6,0.3,1.3,0.3h1.3c0.8,0,1.3-0.1,1.6-0.3c0.3-0.2,0.6-0.5,0.8-1h3c0,0.1,0,0.1-0.1,0.2
		c0,0.1-0.1,0.2-0.1,0.3c-0.4,1-1,1.8-1.8,2.2c-0.8,0.4-2,0.6-3.5,0.6H110.7z"/>
	<path class="st1" d="M130.7,37.8h3.1l-3.1,7.6h-3.1l0.5-1.2c-0.5,0.5-1.1,0.8-1.7,1c-0.6,0.2-1.5,0.3-2.6,0.3
		c-1.4,0-2.4-0.2-2.9-0.7c-0.5-0.5-0.5-1.2-0.1-2.2l2-4.9h3.1l-1.6,3.9c-0.3,0.7-0.3,1.1,0,1.3c0.2,0.2,0.8,0.3,1.7,0.3
		c1,0,1.7-0.1,2.2-0.4c0.5-0.3,0.9-0.7,1.1-1.4L130.7,37.8z"/>
	<path class="st1" d="M138.5,39.2c0.5-0.5,1.1-0.9,1.7-1.2c0.6-0.2,1.3-0.4,2.1-0.4c1.2,0,1.9,0.2,2.2,0.7c0.3,0.4,0.3,1.2-0.2,2.3
		c-0.1,0.2-0.2,0.4-0.3,0.7l0,0h-2.7l0-0.1c0.2-0.4,0.2-0.8,0-1c-0.2-0.2-0.6-0.3-1.2-0.3c-0.6,0-1.1,0.1-1.6,0.4
		c-0.4,0.2-0.8,0.6-0.9,1l-1.7,4.1H133l3.1-7.6h3.1L138.5,39.2z"/>
	<path class="st1" d="M146.7,45.4h-3.1l3.1-7.6h3.1L146.7,45.4z M150.2,36.8h-3.1l0.9-2.2h3.1L150.2,36.8z"/>
	<path class="st1" d="M152.1,39.7h-1.7l0.8-2h1.7l0.7-1.8h3.1l-0.7,1.8h4.8l-0.8,2h-4.8l-1.1,2.6c-0.2,0.4-0.2,0.7-0.1,0.8
		c0.1,0.2,0.4,0.2,0.8,0.2c0.5,0,0.9-0.1,1.1-0.2c0.3-0.2,0.5-0.4,0.6-0.9c0-0.1,0.1-0.2,0.1-0.4c0,0,0,0,0,0h2.7
		c0,0.1,0,0.2-0.1,0.3c0,0.1-0.1,0.2-0.2,0.4c-0.4,1-1.1,1.8-1.9,2.2c-0.9,0.5-2.1,0.7-3.6,0.7c-1.5,0-2.4-0.2-2.8-0.6
		c-0.4-0.4-0.5-1.1-0.1-2L152.1,39.7z"/>
	<path class="st1" d="M163.7,45h-1.1l-0.8-7.3h3.4l0.4,5l4.5-5h3.3l-7.6,8.2c-0.4,0.4-0.8,0.8-1.1,1c-0.3,0.3-0.7,0.5-1,0.6
		c-0.3,0.1-0.6,0.2-0.9,0.3c-0.3,0.1-0.7,0.1-1.2,0.1c-0.2,0-0.5,0-0.7,0s-0.5,0-0.7,0l0.7-1.8c0.1,0,0.2,0,0.3,0c0.1,0,0.2,0,0.3,0
		c0.5,0,0.9-0.1,1.3-0.3S163.4,45.4,163.7,45z"/>
</g>
</svg>
